<?xml version="1.0" encoding="UTF-8" standalone="no"?>
<!-- Created with Inkscape (http://www.inkscape.org/) -->

<svg
   xmlns:dc="http://purl.org/dc/elements/1.1/"
   xmlns:cc="http://creativecommons.org/ns#"
   xmlns:rdf="http://www.w3.org/1999/02/22-rdf-syntax-ns#"
   xmlns:svg="http://www.w3.org/2000/svg"
   xmlns="http://www.w3.org/2000/svg"
   xmlns:sodipodi="http://sodipodi.sourceforge.net/DTD/sodipodi-0.dtd"
   xmlns:inkscape="http://www.inkscape.org/namespaces/inkscape"
   width="340.57001mm"
   height="372.08414mm"
   viewBox="0 0 340.57001 372.08414"
   version="1.1"
   id="svg6467"
   inkscape:version="0.92.1 r15371"
   sodipodi:docname="_spinner.svg">
  <defs
     id="defs6461" />
  <sodipodi:namedview
     id="base"
     pagecolor="#ffffff"
     bordercolor="#666666"
     borderopacity="1.0"
     inkscape:pageopacity="0.0"
     inkscape:pageshadow="2"
     inkscape:zoom="0.7"
     inkscape:cx="378.2277"
     inkscape:cy="797.29443"
     inkscape:document-units="mm"
     inkscape:current-layer="layer1"
     showgrid="false"
     inkscape:snap-bbox="true"
     inkscape:bbox-paths="true"
     inkscape:snap-bbox-edge-midpoints="true"
     inkscape:bbox-nodes="true"
     inkscape:snap-bbox-midpoints="true"
     inkscape:window-width="2736"
     inkscape:window-height="1699"
     inkscape:window-x="-13"
     inkscape:window-y="-13"
     inkscape:window-maximized="1" />
  <metadata
     id="metadata6464">
    <rdf:RDF>
      <cc:Work
         rdf:about="">
        <dc:format>image/svg+xml</dc:format>
        <dc:type
           rdf:resource="http://purl.org/dc/dcmitype/StillImage" />
        <dc:title></dc:title>
      </cc:Work>
    </rdf:RDF>
  </metadata>
  <g
     inkscape:label="Layer 1"
     inkscape:groupmode="layer"
     id="layer1"
     transform="translate(66.513418,33.985973)">
    <path
       style="fill:#000000;stroke-width:0.26458332"
       d="m 199.37634,276.82016 c -22.4402,-2.14069 -42.7574,-16.34474 -53.71065,-36.17962 -12.54811,-20.04945 -39.67134,-27.28911 -60.925168,-18.32614 -13.26185,4.90082 -21.81127,16.48218 -28.90661,28.0994 -17.12398,22.85706 -49.4855798,32.02497 -75.93026,21.55604 -23.6376,-8.24434 -40.77921,-30.96471 -43.50609,-55.49534 -4.03205,-32.32787 19.26172,-65.84366 50.93119,-72.75842 14.7471802,-3.10085 31.33733,-0.47681 43.7617,-10.76106 21.81932,-13.85677 27.60573,-45.344625 14.01908,-66.617029 -13.85315,-25.74762 -9.67596,-60.4594308 11.93636,-80.846866 18.81094,-19.083217 49.112518,-24.724525 73.681488,-14.335988 22.7418,9.299255 39.49658,32.1481312 40.71637,56.753617 2.21758,16.784767 -4.5784,32.422287 -12.21158,46.83052 -11.03793,25.567906 5.40983,57.874016 32.0914,64.951286 13.08418,3.94836 27.62103,1.10486 40.19838,7.41967 23.36221,9.08171 40.23453,32.61079 41.83455,57.51996 2.15776,10.00735 -1.07542,20.86896 -4.22609,30.54092 -10.70852,27.60197 -40.46809,45.1735 -69.75407,41.64905 z m 14.15438,-21.5913 c 14.47498,-1.9381 27.10423,-12.86863 33.15415,-25.87074 7.1918,-17.24659 2.01466,-38.11147 -12.74523,-49.75823 -16.64673,-14.00635 -44.68285,-12.83122 -58.66837,4.73442 -17.66139,17.08828 -13.93241,48.89709 5.88198,62.75694 8.98777,7.25896 20.91088,9.40491 32.37747,8.13761 z m -7.22093,-13.43075 c -16.21049,-0.52677 -30.23959,-15.711 -27.70035,-32.23704 1.77644,-18.83996 24.32324,-31.46031 41.27135,-22.50134 14.79647,6.28507 21.45116,26.36773 12.76407,39.75636 -5.12019,8.99761 -15.99353,15.19043 -26.33507,14.98202 z m 3.7152,-13.87154 c 11.88559,-1.91195 17.84093,-18.89799 7.28509,-26.55881 -10.18748,-9.74403 -29.1468,1.65367 -24.79417,15.41485 2.02599,7.60249 9.74764,12.60507 17.50908,11.14396 z M 6.3782322,254.52115 c 16.4744798,-2.27395 31.4290898,-14.19382 36.4682398,-30.2843 8.10149,-23.58286 -9.79846,-50.60349 -33.8386398,-54.15657 -23.1550802,-5.19384 -48.0047502,13.04816 -50.5061102,36.52636 -3.85673,22.9054 14.66709,46.3627 37.7451102,47.9097 3.35911998,0.38057 6.77133,0.30781 10.1314,0.005 z m -8.91054,-14.02585 c -17.9366802,-1.32414 -30.6482102,-22.33782 -22.9851502,-38.88081 6.42893,-18.54561 32.6378302,-24.45569 46.42939,-10.47064 14.70552,11.73273 11.55978,37.50922 -5.43018,45.5825 -5.39204,3.29666 -11.7235698,4.70166 -18.0140598,3.76895 z m 6.24846,-13.41939 c 13.3295298,-1.44459 17.7777598,-20.5811 6.3011398,-27.52922 -10.59656982,-8.06998 -27.67673,3.20866 -23.52047,16.32941 1.61418,7.5342 9.6680802,12.6087 17.2193302,11.19981 z M 107.55976,189.32005 c 14.46738,-2.1557 27.82952,-12.09237 32.4168,-26.35365 7.7067,-21.68947 -9.95784,-45.99663 -32.22519,-47.99356 -22.105928,-2.85534 -43.705198,17.38084 -41.380708,39.74042 0.5683,18.31287 17.03888,34.17761 35.429388,34.69806 l 2.9169,0.15975 2.84269,-0.25105 z m 1.39441,-112.209966 c 23.48184,-2.30131 42.6061,-26.292563 37.95605,-50.057754 -3.88528,-22.6234538 -27.51755,-40.417353 -50.473888,-35.5446089 -24.65465,4.088964 -42.49151,32.3207639 -33.17528,56.1355099 6.19297,19.07004 25.7074,31.992773 45.693118,29.466853 z M 100.76905,62.783431 C 82.753522,61.398241 69.578782,39.989091 77.840072,23.285385 84.226942,6.0207302 108.29244,-0.06330275 122.18608,11.742601 c 15.69232,10.757506 14.82467,36.7921 -1.78868,46.20219 -5.86197,3.76979 -12.58078,5.89691 -19.62835,4.83864 z m 6.78962,-13.69588 c 13.29766,-1.92342 16.76148,-20.837229 5.33469,-27.644149 -10.22446,-6.916079 -25.867798,2.489388 -23.636058,15.0711 1.21163,8.341419 9.74491,14.827069 18.301368,12.573049 z"
       id="path6490"
       inkscape:connector-curvature="0" />
  </g>
</svg>
